# xmcd CD database file
# Copyright (C) 1993-1998 Ti Kan
# 
# Track frame offsets:
#     182
#     20955
#     34740
#     43895
#     56192
#     69972
#     87675
#     98557
#     114862
#     125450
#     140040
#     158640
#     172355
#     184232
#     196062
#     211082
# 
# Disc length: 2990 seconds
# 
# Revision: 1
# Processed by: cddbd v1.4b41PL1 Copyright (c) Steve Scherf et al.
# Submitted via: DiscPlay 4.0.4
# 
DISCID=ea0bac10
DTITLE=The Downliners Sect - Savage Return
DYEAR=1900
DGENRE=
TTITLE0=Bad Girl Looking For Fun
TTITLE1=Picadilly Run
TTITLE2=Ain't Got You
TTITLE3=Hard Case
TTITLE4=Midnight Call
TTITLE5=Pan American Boogie
TTITLE6=Eel Pie Memories
TTITLE7=Down The Road Apiece
TTITLE8=Talking Bout You
TTITLE9=Studio 51
TTITLE10=Bad Penny
TTITLE11=Who Do You Love
TTITLE12=Cadillac
TTITLE13=Bye Bye Johnny
TTITLE14=Some Say The Do
TTITLE15=Before You Accuse Me
EXTD=
EXTT0=
EXTT1=
EXTT2=
EXTT3=
EXTT4=
EXTT5=
EXTT6=
EXTT7=
EXTT8=
EXTT9=
EXTT10=
EXTT11=
EXTT12=
EXTT13=
EXTT14=
EXTT15=
PLAYORDER=
